<svg id="ART" xmlns="http://www.w3.org/2000/svg" xmlns:xlink="http://www.w3.org/1999/xlink" viewBox="0 0 48 48"><defs><style>.cls-1{fill:url(#linear-gradient);}.cls-2{fill:url(#linear-gradient-2);}.cls-3{fill:url(#linear-gradient-3);}.cls-4{fill:url(#linear-gradient-4);}.cls-5{fill:url(#linear-gradient-5);}.cls-6{fill:url(#linear-gradient-6);}.cls-7{fill:url(#linear-gradient-7);}.cls-8{fill:url(#linear-gradient-8);}.cls-9{fill:url(#linear-gradient-9);}.cls-10{fill:url(#linear-gradient-10);}.cls-11{fill:url(#linear-gradient-11);}.cls-12{fill:url(#linear-gradient-12);}.cls-13{fill:url(#linear-gradient-13);}.cls-14{fill:url(#linear-gradient-14);}.cls-15{fill:url(#linear-gradient-15);}.cls-16{fill:url(#linear-gradient-16);}.cls-17{fill:url(#linear-gradient-17);}.cls-18{fill:url(#linear-gradient-18);}.cls-19{fill:url(#linear-gradient-19);}.cls-20{fill:url(#linear-gradient-20);}.cls-21{fill:url(#linear-gradient-21);}.cls-22{fill:url(#linear-gradient-22);}.cls-23{fill:url(#linear-gradient-23);}.cls-24{fill:url(#linear-gradient-24);}.cls-25{fill:url(#linear-gradient-25);}.cls-26{fill:url(#linear-gradient-26);}.cls-27{fill:url(#linear-gradient-27);}.cls-28{fill:url(#linear-gradient-28);}.cls-29{fill:url(#linear-gradient-29);}.cls-30{fill:url(#linear-gradient-30);}.cls-31{fill:url(#linear-gradient-31);}.cls-32{fill:url(#linear-gradient-32);}.cls-33{fill:url(#linear-gradient-33);}.cls-34{fill:url(#linear-gradient-34);}.cls-35{fill:url(#linear-gradient-35);}.cls-36{fill:url(#linear-gradient-36);}.cls-37{fill:url(#linear-gradient-37);}.cls-38{fill:url(#linear-gradient-38);}.cls-39{fill:url(#linear-gradient-39);}.cls-40{fill:url(#linear-gradient-40);}.cls-41{fill:url(#linear-gradient-41);}.cls-42{fill:url(#linear-gradient-42);}.cls-43{fill:url(#linear-gradient-43);}</style><linearGradient id="linear-gradient" x1="18.43" y1="18.64" x2="18.43" y2="2.88" gradientUnits="userSpaceOnUse"><stop offset="0" stop-color="#fff"/><stop offset="0.52" stop-color="#cce2e6"/><stop offset="1" stop-color="#8fa1bb"/></linearGradient><linearGradient id="linear-gradient-2" x1="18.43" y1="21.21" x2="18.43" y2="8.07" xlink:href="#linear-gradient"/><linearGradient id="linear-gradient-3" x1="18.43" y1="9.86" x2="18.43" y2="-36.29" gradientUnits="userSpaceOnUse"><stop offset="0" stop-color="#273a9b"/><stop offset="0.56" stop-color="#202f65"/><stop offset="1" stop-color="#021e2f"/></linearGradient><linearGradient id="linear-gradient-4" x1="21.64" y1="12.43" x2="21.64" y2="5.11" xlink:href="#linear-gradient-3"/><linearGradient id="linear-gradient-5" x1="25.5" y1="12.43" x2="25.5" y2="5.11" xlink:href="#linear-gradient-3"/><linearGradient id="linear-gradient-6" x1="29.36" y1="12.43" x2="29.36" y2="5.11" xlink:href="#linear-gradient-3"/><linearGradient id="linear-gradient-7" x1="8.81" y1="12.18" x2="8.81" y2="5.79" xlink:href="#linear-gradient-3"/><linearGradient id="linear-gradient-8" x1="8.81" y1="15.21" x2="8.81" y2="0.64" gradientUnits="userSpaceOnUse"><stop offset="0" stop-color="#f3c57a"/><stop offset="0.49" stop-color="#f39369"/><stop offset="1" stop-color="#e94867"/></linearGradient><linearGradient id="linear-gradient-9" x1="8.81" y1="11.82" x2="8.81" y2="5.37" xlink:href="#linear-gradient-8"/><linearGradient id="linear-gradient-10" x1="21.64" y1="9.94" x2="21.64" y2="5.33" gradientUnits="userSpaceOnUse"><stop offset="0" stop-color="#27e9de"/><stop offset="0.52" stop-color="#03a4ec"/><stop offset="1" stop-color="#2547a8"/></linearGradient><linearGradient id="linear-gradient-11" x1="25.5" y1="9.94" x2="25.5" y2="5.33" xlink:href="#linear-gradient-10"/><linearGradient id="linear-gradient-12" x1="29.36" y1="9.94" x2="29.36" y2="5.33" xlink:href="#linear-gradient-10"/><linearGradient id="linear-gradient-13" x1="18.43" y1="30.21" x2="18.43" y2="14.45" xlink:href="#linear-gradient"/><linearGradient id="linear-gradient-14" x1="18.43" y1="32.79" x2="18.43" y2="19.64" xlink:href="#linear-gradient"/><linearGradient id="linear-gradient-15" x1="18.43" y1="21.43" x2="18.43" y2="-24.71" xlink:href="#linear-gradient-3"/><linearGradient id="linear-gradient-16" x1="21.64" y1="24" x2="21.64" y2="16.68" xlink:href="#linear-gradient-3"/><linearGradient id="linear-gradient-17" x1="25.5" y1="24" x2="25.5" y2="16.68" xlink:href="#linear-gradient-3"/><linearGradient id="linear-gradient-18" x1="29.36" y1="24" x2="29.36" y2="16.68" xlink:href="#linear-gradient-3"/><linearGradient id="linear-gradient-19" x1="8.81" y1="23.75" x2="8.81" y2="17.36" xlink:href="#linear-gradient-3"/><linearGradient id="linear-gradient-20" x1="8.81" y1="26.79" x2="8.81" y2="12.21" xlink:href="#linear-gradient-8"/><linearGradient id="linear-gradient-21" x1="8.81" y1="23.39" x2="8.81" y2="16.94" xlink:href="#linear-gradient-8"/><linearGradient id="linear-gradient-22" x1="21.64" y1="21.51" x2="21.64" y2="16.91" xlink:href="#linear-gradient-10"/><linearGradient id="linear-gradient-23" x1="25.5" y1="21.51" x2="25.5" y2="16.91" xlink:href="#linear-gradient-10"/><linearGradient id="linear-gradient-24" x1="29.36" y1="21.51" x2="29.36" y2="16.91" xlink:href="#linear-gradient-10"/><linearGradient id="linear-gradient-25" x1="18.43" y1="41.79" x2="18.43" y2="26.02" xlink:href="#linear-gradient"/><linearGradient id="linear-gradient-26" x1="18.43" y1="44.36" x2="18.43" y2="31.21" xlink:href="#linear-gradient"/><linearGradient id="linear-gradient-27" x1="18.43" y1="33" x2="18.43" y2="-13.14" xlink:href="#linear-gradient-3"/><linearGradient id="linear-gradient-28" x1="21.64" y1="35.57" x2="21.64" y2="28.25" xlink:href="#linear-gradient-3"/><linearGradient id="linear-gradient-29" x1="25.5" y1="35.57" x2="25.5" y2="28.25" xlink:href="#linear-gradient-3"/><linearGradient id="linear-gradient-30" x1="29.36" y1="35.57" x2="29.36" y2="28.25" xlink:href="#linear-gradient-3"/><linearGradient id="linear-gradient-31" x1="8.81" y1="35.32" x2="8.81" y2="28.94" xlink:href="#linear-gradient-3"/><linearGradient id="linear-gradient-32" x1="8.81" y1="38.36" x2="8.81" y2="23.79" xlink:href="#linear-gradient-8"/><linearGradient id="linear-gradient-33" x1="8.81" y1="34.96" x2="8.81" y2="28.51" xlink:href="#linear-gradient-8"/><linearGradient id="linear-gradient-34" x1="21.64" y1="33.08" x2="21.64" y2="28.48" xlink:href="#linear-gradient-10"/><linearGradient id="linear-gradient-35" x1="25.5" y1="33.08" x2="25.5" y2="28.48" xlink:href="#linear-gradient-10"/><linearGradient id="linear-gradient-36" x1="29.36" y1="33.08" x2="29.36" y2="28.48" xlink:href="#linear-gradient-10"/><linearGradient id="linear-gradient-37" x1="18.43" y1="48.5" x2="18.43" y2="23.17" xlink:href="#linear-gradient-3"/><linearGradient id="linear-gradient-38" x1="36" y1="36.42" x2="36" y2="15.96" xlink:href="#linear-gradient"/><linearGradient id="linear-gradient-39" x1="36" y1="26.44" x2="36" y2="38.78" xlink:href="#linear-gradient"/><linearGradient id="linear-gradient-40" x1="36" y1="56.25" x2="36" y2="3.66" xlink:href="#linear-gradient-3"/><linearGradient id="linear-gradient-41" x1="36" y1="36.81" x2="36" y2="42.75" xlink:href="#linear-gradient-3"/><linearGradient id="linear-gradient-42" x1="36" y1="48.03" x2="36" y2="33.02" xlink:href="#linear-gradient-10"/><linearGradient id="linear-gradient-43" x1="36" y1="41.5" x2="36" y2="34.55" xlink:href="#linear-gradient-10"/></defs><title>database, protection, lock, server, rack</title><path class="cls-1" d="M31.29,3H5.57A2.57,2.57,0,0,0,3,5.57V11a1,1,0,0,0,1,1H4a1.58,1.58,0,0,1,1.58,1.58v1H31.29v-1A1.58,1.58,0,0,1,32.86,12h0a1,1,0,0,0,1-1V5.57A2.57,2.57,0,0,0,31.29,3Z"/><path class="cls-2" d="M3,6v5a1,1,0,0,0,1,1,1.58,1.58,0,0,1,1.55,1.29H31.32A1.58,1.58,0,0,1,32.86,12a1,1,0,0,0,1-1V6Z"/><path class="cls-3" d="M4.85,3H32a1.85,1.85,0,0,1,1.85,1.85v6.74a.41.41,0,0,1-.41.41h-30A.41.41,0,0,1,3,11.59V4.85A1.85,1.85,0,0,1,4.85,3Z"/><rect class="cls-4" x="21" y="7.39" width="1.29" height="4.61"/><rect class="cls-5" x="24.86" y="7.39" width="1.29" height="4.61"/><rect class="cls-6" x="28.71" y="7.39" width="1.29" height="4.61"/><rect class="cls-7" x="6.78" y="7.5" width="4.07" height="4.5"/><circle class="cls-8" cx="8.81" cy="7.5" r="2.04"/><circle class="cls-9" cx="8.81" cy="7.5" r="0.77"/><rect class="cls-10" x="21" y="6.86" width="1.29" height="1.29" rx="0.31" ry="0.31"/><rect class="cls-11" x="24.86" y="6.86" width="1.29" height="1.29" rx="0.31" ry="0.31"/><rect class="cls-12" x="28.71" y="6.86" width="1.29" height="1.29" rx="0.31" ry="0.31"/><path class="cls-13" d="M31.29,14.57H5.57A2.57,2.57,0,0,0,3,17.14v5.44a1,1,0,0,0,1,1H4a1.58,1.58,0,0,1,1.58,1.58v1H31.29v-1a1.58,1.58,0,0,1,1.58-1.58h0a1,1,0,0,0,1-1V17.14A2.57,2.57,0,0,0,31.29,14.57Z"/><path class="cls-14" d="M3,17.57v5a1,1,0,0,0,1,1,1.58,1.58,0,0,1,1.55,1.29H31.32a1.58,1.58,0,0,1,1.55-1.29,1,1,0,0,0,1-1v-5Z"/><path class="cls-15" d="M4.85,14.57H32a1.85,1.85,0,0,1,1.85,1.85v6.74a.41.41,0,0,1-.41.41h-30A.41.41,0,0,1,3,23.16V16.42A1.85,1.85,0,0,1,4.85,14.57Z"/><rect class="cls-16" x="21" y="18.96" width="1.29" height="4.61"/><rect class="cls-17" x="24.86" y="18.96" width="1.29" height="4.61"/><rect class="cls-18" x="28.71" y="18.96" width="1.29" height="4.61"/><rect class="cls-19" x="6.78" y="19.07" width="4.07" height="4.5"/><circle class="cls-20" cx="8.81" cy="19.07" r="2.04"/><circle class="cls-21" cx="8.81" cy="19.07" r="0.77"/><rect class="cls-22" x="21" y="18.43" width="1.29" height="1.29" rx="0.31" ry="0.31"/><rect class="cls-23" x="24.86" y="18.43" width="1.29" height="1.29" rx="0.31" ry="0.31"/><rect class="cls-24" x="28.71" y="18.43" width="1.29" height="1.29" rx="0.31" ry="0.31"/><path class="cls-25" d="M31.29,26.14H5.57A2.57,2.57,0,0,0,3,28.71v5.44a1,1,0,0,0,1,1H4a1.58,1.58,0,0,1,1.58,1.58v1H31.29v-1a1.58,1.58,0,0,1,1.58-1.58h0a1,1,0,0,0,1-1V28.71A2.57,2.57,0,0,0,31.29,26.14Z"/><path class="cls-26" d="M3,29.14v5a1,1,0,0,0,1,1,1.58,1.58,0,0,1,1.55,1.29H31.32a1.58,1.58,0,0,1,1.55-1.29,1,1,0,0,0,1-1v-5Z"/><path class="cls-27" d="M4.85,26.14H32A1.85,1.85,0,0,1,33.86,28v6.74a.41.41,0,0,1-.41.41h-30A.41.41,0,0,1,3,34.73V28A1.85,1.85,0,0,1,4.85,26.14Z"/><rect class="cls-28" x="21" y="30.54" width="1.29" height="4.61"/><rect class="cls-29" x="24.86" y="30.54" width="1.29" height="4.61"/><rect class="cls-30" x="28.71" y="30.54" width="1.29" height="4.61"/><rect class="cls-31" x="6.78" y="30.64" width="4.07" height="4.5"/><circle class="cls-32" cx="8.81" cy="30.64" r="2.04"/><circle class="cls-33" cx="8.81" cy="30.64" r="0.77"/><rect class="cls-34" x="21" y="30" width="1.29" height="1.29" rx="0.31" ry="0.31"/><rect class="cls-35" x="24.86" y="30" width="1.29" height="1.29" rx="0.31" ry="0.31"/><rect class="cls-36" x="28.71" y="30" width="1.29" height="1.29" rx="0.31" ry="0.31"/><path class="cls-37" d="M33.21,39H3.64A.64.64,0,0,1,3,38.36H3a.64.64,0,0,1,.64-.64H33.21a.64.64,0,0,1,.64.64h0A.64.64,0,0,1,33.21,39Z"/><path class="cls-38" d="M43.5,39h-15V28.5a7.5,7.5,0,0,1,15,0Zm-12-3h9V28.5a4.5,4.5,0,0,0-9,0Z"/><path class="cls-39" d="M43.5,30.12a2.17,2.17,0,0,0-.69-.12H40.5v6h-9V30H29.19a2.17,2.17,0,0,0-.69.12V39h15Z"/><rect class="cls-40" x="27" y="31.5" width="18" height="13.5" rx="2.19" ry="2.19"/><path class="cls-41" d="M29.19,31.5A2.18,2.18,0,0,0,27.12,33H44.88a2.18,2.18,0,0,0-2.07-1.5Z"/><path class="cls-42" d="M38.16,38.16a2.16,2.16,0,0,0-4.26-.52,2.14,2.14,0,0,0,.42,1.87,1.15,1.15,0,0,1,.24.73v.32A1.44,1.44,0,0,0,36,42h0a1.44,1.44,0,0,0,1.44-1.44v-.32a1.18,1.18,0,0,1,.25-.74A2.13,2.13,0,0,0,38.16,38.16Z"/><path class="cls-43" d="M38,38.92a2.16,2.16,0,0,0-2.59-1.35A2.13,2.13,0,0,0,34,38.91a2.16,2.16,0,0,0,.33.6,1.15,1.15,0,0,1,.24.73v.32a1.44,1.44,0,0,0,2.88,0v-.32a1.18,1.18,0,0,1,.25-.74A2.16,2.16,0,0,0,38,38.92Z"/></svg>