<?xml version="1.0" encoding="utf-8"?>
<!-- Generator: Adobe Illustrator 24.0.2, SVG Export Plug-In . SVG Version: 6.00 Build 0)  -->
<svg version="1.1" xmlns="http://www.w3.org/2000/svg" xmlns:xlink="http://www.w3.org/1999/xlink" x="0px" y="0px"
	 viewBox="0 0 1501.43 1501.43" style="enable-background:new 0 0 1501.43 1501.43;" xml:space="preserve">
<style type="text/css">
	.st0{fill:#89D5C9;}
	.st1{fill:#A1E2D6;}
	.st2{fill:#B6EDDE;}
	.st3{fill:#CBF3E8;}
</style>
<g id="BACKGROUND">
	<g>
		<path class="st0" d="M745.11,761c-70.04,0-126.81-56.77-126.81-126.81V156.43c0-70.04,56.77-126.81,126.81-126.81
			c70.04,0,126.81,56.77,126.81,126.81v477.76C871.92,704.23,815.15,761,745.11,761z M1442.16,761.34
			c0-186.19-72.51-361.23-204.16-492.88c-49.52-49.53-129.82-49.53-179.34,0c-49.53,49.52-49.53,129.82,0,179.34
			c83.75,83.75,129.88,195.1,129.88,313.54c0,244.51-198.91,443.42-443.42,443.42c-244.5,0-443.42-198.91-443.42-443.42
			c0-118.44,46.12-229.79,129.88-313.54c49.52-49.52,49.52-129.82,0-179.34c-49.53-49.53-129.81-49.53-179.34,0
			C120.57,400.11,48.07,575.15,48.07,761.34c0,384.35,312.69,697.05,697.05,697.05S1442.16,1145.69,1442.16,761.34z"/>
		<path class="st1" d="M745.11,1439.6c-374,0-678.26-304.26-678.26-678.26c0-181.17,70.55-351.49,198.66-479.6
			c20.41-20.4,47.54-31.64,76.39-31.64c28.85,0,55.98,11.24,76.39,31.64c42.11,42.12,42.11,110.65,0,152.77
			c-87.3,87.3-135.38,203.37-135.38,326.83c0,254.86,207.34,462.21,462.21,462.21c254.86,0,462.21-207.35,462.21-462.21
			c0-123.46-48.08-239.53-135.38-326.83c-20.4-20.41-31.64-47.53-31.64-76.39s11.24-55.98,31.64-76.39
			c20.4-20.41,47.53-31.64,76.39-31.64c28.86,0,55.99,11.23,76.39,31.64c128.11,128.11,198.66,298.43,198.66,479.6
			C1423.37,1135.33,1119.11,1439.6,745.11,1439.6z M745.11,742.22c-59.56,0-108.03-48.46-108.03-108.03V156.43
			c0-59.57,48.46-108.03,108.03-108.03c59.56,0,108.03,48.46,108.03,108.03v477.76C853.14,693.76,804.68,742.22,745.11,742.22z"/>
		<path class="st2" d="M745.11,1411.42c-358.46,0-650.08-291.62-650.08-650.08c0-173.64,67.62-336.89,190.4-459.67
			c15.09-15.09,35.13-23.39,56.46-23.39s41.37,8.3,56.46,23.39c31.13,31.13,31.13,81.79-0.01,112.92
			c-92.61,92.62-143.63,215.77-143.63,346.75c0,270.4,219.99,490.39,490.39,490.39c270.4,0,490.39-219.99,490.39-490.39
			c0-130.99-51.01-254.13-143.64-346.76c-15.08-15.08-23.38-35.13-23.38-56.46s8.3-41.38,23.38-56.46
			c15.08-15.09,35.13-23.39,56.46-23.39c21.33,0,41.38,8.3,56.45,23.38c122.79,122.79,190.41,286.04,190.41,459.68
			C1395.19,1119.8,1103.57,1411.42,745.11,1411.42z M745.11,714.04c-44.02,0-79.84-35.82-79.84-79.84V156.43
			c0-44.03,35.82-79.84,79.84-79.84c44.02,0,79.84,35.82,79.84,79.84v477.76C824.96,678.22,789.14,714.04,745.11,714.04z"/>
		<path class="st3" d="M702.84,634.19V156.43c0-23.31,18.96-42.27,42.27-42.27c23.31,0,42.27,18.96,42.27,42.27v477.76
			c0,23.31-18.96,42.27-42.27,42.27C721.8,676.46,702.84,657.5,702.84,634.19z M1178.21,328.23
			c-10.77-10.77-23.35-12.38-29.89-12.38c-6.54,0-19.12,1.61-29.9,12.39c-10.77,10.77-12.37,23.35-12.37,29.89
			c0,6.54,1.61,19.12,12.38,29.89c99.71,99.72,154.64,232.3,154.64,373.32c0,291.12-236.85,527.96-527.96,527.96
			c-291.12,0-527.96-236.85-527.96-527.96c0-141.02,54.92-273.6,154.64-373.32c16.48-16.48,16.48-43.3,0-59.78
			c-10.78-10.77-23.35-12.38-29.89-12.38c-6.54,0-19.11,1.61-29.89,12.38c-115.69,115.69-179.4,269.5-179.4,433.11
			c0,337.73,274.77,612.5,612.5,612.5s612.5-274.77,612.5-612.5C1357.61,597.74,1293.91,443.92,1178.21,328.23z"/>
	</g>
</g>
<g id="OBJECTS">
</g>
<g id="DESIGNED_BY_FREEPIK">
</g>
</svg>
