<svg id="ART" xmlns="http://www.w3.org/2000/svg" xmlns:xlink="http://www.w3.org/1999/xlink" viewBox="0 0 48 48"><defs><style>.cls-1{fill:url(#linear-gradient);}.cls-2{fill:none;}.cls-3{fill:url(#linear-gradient-2);}.cls-4{fill:url(#linear-gradient-3);}.cls-5{fill:url(#linear-gradient-4);}.cls-6{fill:url(#linear-gradient-5);}.cls-7{fill:url(#linear-gradient-6);}.cls-8{fill:url(#linear-gradient-7);}.cls-9{fill:url(#linear-gradient-8);}.cls-10{fill:url(#linear-gradient-9);}.cls-11{fill:url(#linear-gradient-10);}.cls-12{fill:url(#linear-gradient-11);}.cls-13{fill:url(#linear-gradient-12);}.cls-14{fill:url(#linear-gradient-13);}.cls-15{fill:url(#linear-gradient-14);}.cls-16{fill:url(#linear-gradient-15);}.cls-17{fill:url(#linear-gradient-16);}.cls-18{fill:url(#linear-gradient-17);}.cls-19{fill:url(#linear-gradient-20);}.cls-20{fill:url(#linear-gradient-21);}.cls-21{fill:url(#linear-gradient-22);}.cls-22{fill:url(#linear-gradient-23);}.cls-23{fill:url(#linear-gradient-25);}.cls-24{fill:url(#linear-gradient-27);}.cls-25{fill:url(#linear-gradient-29);}.cls-26{fill:url(#linear-gradient-31);}.cls-27{fill:url(#linear-gradient-32);}.cls-28{fill:url(#linear-gradient-33);}.cls-29{fill:url(#linear-gradient-34);}.cls-30{fill:url(#linear-gradient-35);}.cls-31{fill:url(#linear-gradient-36);}</style><linearGradient id="linear-gradient" x1="22.5" y1="52.45" x2="22.5" y2="-21.88" gradientUnits="userSpaceOnUse"><stop offset="0" stop-color="#273a9b"/><stop offset="0.56" stop-color="#202f65"/><stop offset="1" stop-color="#021e2f"/></linearGradient><linearGradient id="linear-gradient-2" x1="3.15" y1="63.13" x2="3.15" y2="-29.52" gradientUnits="userSpaceOnUse"><stop offset="0" stop-color="#27e9de"/><stop offset="0.52" stop-color="#03a4ec"/><stop offset="1" stop-color="#2547a8"/></linearGradient><linearGradient id="linear-gradient-3" x1="32.14" y1="59.95" x2="32.14" y2="3.19" xlink:href="#linear-gradient-2"/><linearGradient id="linear-gradient-4" x1="3.15" y1="63.13" x2="3.15" y2="-29.52" xlink:href="#linear-gradient-2"/><linearGradient id="linear-gradient-5" x1="41.85" y1="63.13" x2="41.85" y2="-29.52" xlink:href="#linear-gradient-2"/><linearGradient id="linear-gradient-6" x1="41.85" y1="63.13" x2="41.85" y2="-29.52" xlink:href="#linear-gradient-2"/><linearGradient id="linear-gradient-7" x1="12.86" y1="-18.98" x2="12.86" y2="39.39" xlink:href="#linear-gradient-2"/><linearGradient id="linear-gradient-8" x1="12.86" y1="59.95" x2="12.86" y2="3.19" xlink:href="#linear-gradient-2"/><linearGradient id="linear-gradient-9" x1="32.14" y1="-18.98" x2="32.14" y2="39.39" xlink:href="#linear-gradient-2"/><linearGradient id="linear-gradient-10" x1="22.5" y1="63.13" x2="22.5" y2="-29.52" xlink:href="#linear-gradient-2"/><linearGradient id="linear-gradient-11" x1="22.5" y1="63.13" x2="22.5" y2="-29.52" xlink:href="#linear-gradient-2"/><linearGradient id="linear-gradient-12" x1="22.5" y1="63.12" x2="22.5" y2="-29.52" xlink:href="#linear-gradient-2"/><linearGradient id="linear-gradient-13" x1="22.5" y1="-12.16" x2="22.5" y2="55.71" xlink:href="#linear-gradient-2"/><linearGradient id="linear-gradient-14" x1="22.5" y1="63.12" x2="22.5" y2="-29.52" xlink:href="#linear-gradient-2"/><linearGradient id="linear-gradient-15" x1="22.5" y1="74.96" x2="22.5" y2="1.38" xlink:href="#linear-gradient-2"/><linearGradient id="linear-gradient-16" x1="41.96" y1="63.12" x2="41.96" y2="-29.52" xlink:href="#linear-gradient-2"/><linearGradient id="linear-gradient-17" x1="3.04" y1="63.12" x2="3.04" y2="-29.52" xlink:href="#linear-gradient-2"/><linearGradient id="linear-gradient-20" x1="33.61" y1="42.58" x2="33.61" y2="8.51" xlink:href="#linear-gradient-2"/><linearGradient id="linear-gradient-21" x1="11.39" y1="42.58" x2="11.39" y2="8.51" xlink:href="#linear-gradient-2"/><linearGradient id="linear-gradient-22" x1="22.5" y1="42.58" x2="22.5" y2="8.51" xlink:href="#linear-gradient-2"/><linearGradient id="linear-gradient-23" x1="39.07" y1="63.12" x2="39.07" y2="-29.52" xlink:href="#linear-gradient-2"/><linearGradient id="linear-gradient-25" x1="5.93" y1="63.12" x2="5.93" y2="-29.52" xlink:href="#linear-gradient-2"/><linearGradient id="linear-gradient-27" x1="16.97" y1="63.12" x2="16.97" y2="-29.52" xlink:href="#linear-gradient-2"/><linearGradient id="linear-gradient-29" x1="28.03" y1="63.12" x2="28.03" y2="-29.52" xlink:href="#linear-gradient-2"/><linearGradient id="linear-gradient-31" x1="36.15" y1="33.92" x2="36.15" y2="15.04" gradientUnits="userSpaceOnUse"><stop offset="0" stop-color="#fff"/><stop offset="0.52" stop-color="#cce2e6"/><stop offset="1" stop-color="#8fa1bb"/></linearGradient><linearGradient id="linear-gradient-32" x1="36.15" y1="26.44" x2="36.15" y2="38.78" xlink:href="#linear-gradient-31"/><linearGradient id="linear-gradient-33" x1="36.15" y1="56.25" x2="36.15" y2="3.66" xlink:href="#linear-gradient"/><linearGradient id="linear-gradient-34" x1="36.15" y1="36.81" x2="36.15" y2="42.75" xlink:href="#linear-gradient"/><linearGradient id="linear-gradient-35" x1="36.15" y1="48.03" x2="36.15" y2="33.02" gradientUnits="userSpaceOnUse"><stop offset="0" stop-color="#f3c57a"/><stop offset="0.49" stop-color="#f39369"/><stop offset="1" stop-color="#e94867"/></linearGradient><linearGradient id="linear-gradient-36" x1="36.15" y1="41.5" x2="36.15" y2="34.55" xlink:href="#linear-gradient-35"/></defs><title>internet, protection, lock, safety, privacy</title><circle class="cls-1" cx="22.5" cy="22.5" r="18.11"/><path class="cls-2" d="M8.85,25.29a14,14,0,0,0,6.89,9.38,39.27,39.27,0,0,1-1.53-9.38Z"/><path class="cls-2" d="M29.26,34.67a14,14,0,0,0,6.89-9.38H30.78A39.27,39.27,0,0,1,29.26,34.67Z"/><path class="cls-2" d="M22.5,8.82c-.9,1.14-2.35,4.85-2.71,10.89h5.41C24.85,13.67,23.4,10,22.5,8.82Z"/><path class="cls-2" d="M15.74,10.33a14,14,0,0,0-6.89,9.38h5.36A39.27,39.27,0,0,1,15.74,10.33Z"/><path class="cls-2" d="M22.5,36.18c.9-1.14,2.35-4.85,2.71-10.89H19.79C20.15,31.33,21.6,35,22.5,36.18Z"/><path class="cls-2" d="M29.26,10.33a39.27,39.27,0,0,1,1.53,9.38h5.36A14,14,0,0,0,29.26,10.33Z"/><path class="cls-3" d="M3.22,25.29c-.06-.41-.11-.82-.14-1.24C3.11,24.47,3.16,24.88,3.22,25.29Z"/><path class="cls-4" d="M29.26,34.67C27.91,39,25.7,42,22.5,42A19.51,19.51,0,0,0,41.78,25.29H36.15A14,14,0,0,1,29.26,34.67Z"/><path class="cls-5" d="M3.08,21c0-.42.09-.83.14-1.24C3.16,20.12,3.11,20.53,3.08,21Z"/><path class="cls-6" d="M41.78,19.71c.06.41.11.82.14,1.24C41.89,20.53,41.84,20.12,41.78,19.71Z"/><path class="cls-7" d="M41.92,24c0,.42-.09.83-.14,1.24C41.84,24.88,41.89,24.47,41.92,24Z"/><path class="cls-8" d="M15.74,10.33C17.09,6,19.3,3,22.5,3A19.51,19.51,0,0,0,3.22,19.71H8.85A14,14,0,0,1,15.74,10.33Z"/><path class="cls-9" d="M15.74,34.67a14,14,0,0,1-6.89-9.38H3.22A19.51,19.51,0,0,0,22.5,42C19.3,42,17.09,39,15.74,34.67Z"/><path class="cls-10" d="M29.26,10.33a14,14,0,0,1,6.89,9.38h5.63A19.51,19.51,0,0,0,22.5,3C25.7,3,27.91,6,29.26,10.33Z"/><path class="cls-11" d="M19.79,19.71c.35-6,1.81-9.75,2.71-10.89.9,1.14,2.35,4.85,2.71,10.89h5.58a39.27,39.27,0,0,0-1.53-9.38,13.86,13.86,0,0,0-13.51,0,39.27,39.27,0,0,0-1.53,9.38Z"/><path class="cls-12" d="M25.21,25.29c-.35,6-1.81,9.75-2.71,10.89-.9-1.14-2.35-4.85-2.71-10.89H14.22a39.27,39.27,0,0,0,1.53,9.38,13.86,13.86,0,0,0,13.51,0,39.27,39.27,0,0,0,1.53-9.38Z"/><path class="cls-13" d="M15.74,10.33a13.86,13.86,0,0,1,13.51,0C27.91,6,25.7,3,22.5,3S17.09,6,15.74,10.33Z"/><path class="cls-14" d="M15.74,10.33a13.86,13.86,0,0,1,13.51,0C27.91,6,25.7,3,22.5,3S17.09,6,15.74,10.33Z"/><path class="cls-15" d="M29.26,34.67a13.86,13.86,0,0,1-13.51,0C17.09,39,19.3,42,22.5,42S27.91,39,29.26,34.67Z"/><path class="cls-16" d="M29.26,34.67a13.86,13.86,0,0,1-13.51,0C17.09,39,19.3,42,22.5,42S27.91,39,29.26,34.67Z"/><path class="cls-17" d="M41.92,21c0,.51.08,1,.08,1.55C42,22,42,21.46,41.92,21Z"/><path class="cls-18" d="M3.08,24C3,23.54,3,23,3,22.5,3,23,3,23.54,3.08,24Z"/><path class="cls-18" d="M3,22.5c0-.52,0-1,.08-1.55C3,21.46,3,22,3,22.5Z"/><path class="cls-17" d="M42,22.5c0,.52,0,1-.08,1.55C42,23.54,42,23,42,22.5Z"/><path class="cls-19" d="M30.86,22.5c0,.93,0,1.86-.07,2.79h5.36a14,14,0,0,0,0-5.57H30.78C30.83,20.64,30.86,21.57,30.86,22.5Z"/><path class="cls-20" d="M14.14,22.5c0-.93,0-1.86.07-2.79H8.85a14,14,0,0,0,0,5.57h5.36C14.17,24.36,14.14,23.43,14.14,22.5Z"/><path class="cls-21" d="M25.21,19.71H19.79c-.05.88-.08,1.81-.08,2.79s0,1.91.08,2.79h5.41c.05-.88.08-1.81.08-2.79S25.26,20.59,25.21,19.71Z"/><path class="cls-22" d="M41.92,24c0-.51.08-1,.08-1.55s0-1-.08-1.55-.09-.83-.14-1.24H36.15a14,14,0,0,1,0,5.57h5.63C41.84,24.88,41.88,24.46,41.92,24Z"/><path class="cls-22" d="M41.92,24c0-.51.08-1,.08-1.55s0-1-.08-1.55-.09-.83-.14-1.24H36.15a14,14,0,0,1,0,5.57h5.63C41.84,24.88,41.88,24.46,41.92,24Z"/><path class="cls-23" d="M8.57,22.5a13.94,13.94,0,0,1,.28-2.79H3.22c-.06.41-.11.82-.14,1.24S3,22,3,22.5s0,1,.08,1.55.09.83.14,1.24H8.85A13.94,13.94,0,0,1,8.57,22.5Z"/><path class="cls-23" d="M8.57,22.5a13.94,13.94,0,0,1,.28-2.79H3.22c-.06.41-.11.82-.14,1.24S3,22,3,22.5s0,1,.08,1.55.09.83.14,1.24H8.85A13.94,13.94,0,0,1,8.57,22.5Z"/><path class="cls-24" d="M19.79,19.71H14.22c0,.92-.07,1.85-.07,2.79s0,1.86.07,2.79h5.58c-.05-.88-.08-1.81-.08-2.79S19.74,20.59,19.79,19.71Z"/><path class="cls-24" d="M19.79,19.71H14.22c0,.92-.07,1.85-.07,2.79s0,1.86.07,2.79h5.58c-.05-.88-.08-1.81-.08-2.79S19.74,20.59,19.79,19.71Z"/><path class="cls-25" d="M25.29,22.5c0,1,0,1.91-.08,2.79h5.58c0-.92.07-1.85.07-2.79s0-1.86-.07-2.79H25.21C25.26,20.59,25.29,21.52,25.29,22.5Z"/><path class="cls-25" d="M25.29,22.5c0,1,0,1.91-.08,2.79h5.58c0-.92.07-1.85.07-2.79s0-1.86-.07-2.79H25.21C25.26,20.59,25.29,21.52,25.29,22.5Z"/><path class="cls-26" d="M43.65,39h-15V28.5a7.5,7.5,0,1,1,15,0Zm-12-3h9V28.5a4.5,4.5,0,1,0-9,0Z"/><path class="cls-27" d="M43.65,30.12A2.17,2.17,0,0,0,43,30H40.65v6h-9V30H29.34a2.17,2.17,0,0,0-.69.12V39h15Z"/><rect class="cls-28" x="27.15" y="31.5" width="18" height="13.5" rx="2.19" ry="2.19"/><path class="cls-29" d="M29.34,31.5A2.18,2.18,0,0,0,27.27,33H45A2.18,2.18,0,0,0,43,31.5Z"/><path class="cls-30" d="M38.31,38.16a2.16,2.16,0,0,0-4.26-.52,2.14,2.14,0,0,0,.42,1.87,1.15,1.15,0,0,1,.24.73v.32A1.44,1.44,0,0,0,36.15,42h0a1.44,1.44,0,0,0,1.44-1.44v-.32a1.18,1.18,0,0,1,.25-.74A2.13,2.13,0,0,0,38.31,38.16Z"/><path class="cls-31" d="M38.16,38.92a2.16,2.16,0,0,0-2.59-1.35,2.13,2.13,0,0,0-1.44,1.34,2.16,2.16,0,0,0,.33.6,1.15,1.15,0,0,1,.24.73v.32a1.44,1.44,0,1,0,2.88,0v-.32a1.18,1.18,0,0,1,.25-.74A2.16,2.16,0,0,0,38.16,38.92Z"/></svg>