<svg id="ART" xmlns="http://www.w3.org/2000/svg" xmlns:xlink="http://www.w3.org/1999/xlink" viewBox="0 0 48 48"><defs><style>.cls-1{fill:url(#linear-gradient);}.cls-2{fill:url(#linear-gradient-2);}.cls-3{fill:url(#linear-gradient-3);}.cls-4{fill:url(#linear-gradient-4);}.cls-5{fill:url(#linear-gradient-5);}.cls-6{fill:url(#linear-gradient-6);}.cls-7{fill:url(#linear-gradient-7);}.cls-8{fill:url(#linear-gradient-8);}.cls-9{fill:url(#linear-gradient-9);}.cls-10{fill:url(#linear-gradient-10);}.cls-11{fill:url(#linear-gradient-11);}.cls-12{fill:url(#linear-gradient-12);}</style><linearGradient id="linear-gradient" x1="24" y1="-23.5" x2="24" y2="71.08" gradientUnits="userSpaceOnUse"><stop offset="0" stop-color="#27e9de"/><stop offset="0.52" stop-color="#03a4ec"/><stop offset="1" stop-color="#2547a8"/></linearGradient><linearGradient id="linear-gradient-2" x1="24.02" y1="56.42" x2="24.02" y2="38.25" xlink:href="#linear-gradient"/><linearGradient id="linear-gradient-3" x1="24" y1="54.83" x2="24" y2="-63.37" gradientUnits="userSpaceOnUse"><stop offset="0" stop-color="#273a9b"/><stop offset="0.56" stop-color="#202f65"/><stop offset="1" stop-color="#021e2f"/></linearGradient><linearGradient id="linear-gradient-4" y1="24" x2="24" y2="4.66" xlink:href="#linear-gradient"/><linearGradient id="linear-gradient-5" x1="8.31" y1="12.81" x2="8.31" y2="-5.26" gradientUnits="userSpaceOnUse"><stop offset="0" stop-color="#f3c57a"/><stop offset="0.49" stop-color="#f39369"/><stop offset="1" stop-color="#e94867"/></linearGradient><linearGradient id="linear-gradient-6" x1="12" y1="12.81" x2="12" y2="-5.26" xlink:href="#linear-gradient"/><linearGradient id="linear-gradient-7" x1="15.69" y1="12.81" x2="15.69" y2="-5.26" gradientUnits="userSpaceOnUse"><stop offset="0" stop-color="#fff"/><stop offset="0.52" stop-color="#cce2e6"/><stop offset="1" stop-color="#8fa1bb"/></linearGradient><linearGradient id="linear-gradient-8" x1="24" y1="32.34" x2="24" y2="7.74" xlink:href="#linear-gradient-7"/><linearGradient id="linear-gradient-9" x1="19.3" y1="45.27" x2="19.3" y2="12.56" xlink:href="#linear-gradient-5"/><linearGradient id="linear-gradient-10" x1="24.26" y1="40.03" x2="24.26" y2="7.66" xlink:href="#linear-gradient-7"/><linearGradient id="linear-gradient-11" x1="28.7" y1="45.27" x2="28.7" y2="12.56" xlink:href="#linear-gradient-5"/><linearGradient id="linear-gradient-12" y1="45.49" x2="24" y2="-9.36" xlink:href="#linear-gradient-3"/></defs><title>webpage, browser, website, protection, shield, safety</title><rect class="cls-1" x="3" y="4.5" width="42" height="39" rx="3.07" ry="3.07"/><rect class="cls-2" x="12.01" y="24.72" width="24.02" height="18.78"/><path class="cls-3" d="M41.93,4.5H6.07A3.07,3.07,0,0,0,3,7.57V10.5H45V7.57A3.07,3.07,0,0,0,41.93,4.5Z"/><rect class="cls-4" x="3" y="10.5" width="42" height="3"/><circle class="cls-5" cx="8.31" cy="7.5" r="0.73"/><circle class="cls-6" cx="12" cy="7.5" r="0.73"/><circle class="cls-7" cx="15.69" cy="7.5" r="0.73"/><path class="cls-8" d="M28.07,15.54a17.1,17.1,0,0,1-3.48-1.67,1.1,1.1,0,0,0-1.17,0,17.1,17.1,0,0,1-3.48,1.67,15.84,15.84,0,0,1-5.63.95,1.11,1.11,0,0,0-1.17,1.1V29.12a8.86,8.86,0,0,0,4.43,7.67L19.71,38a8.57,8.57,0,0,0,8.57,0l2.15-1.24a8.86,8.86,0,0,0,4.43-7.67V17.59a1.11,1.11,0,0,0-1.17-1.1A15.84,15.84,0,0,1,28.07,15.54Z"/><path class="cls-9" d="M14.6,26.44V34a8.85,8.85,0,0,0,3,2.8L19.71,38A8.57,8.57,0,0,0,24,39.18V26.44Z"/><path class="cls-10" d="M33.7,16.49h-.55a16.24,16.24,0,0,1-5.07-1,17.1,17.1,0,0,1-3.48-1.67,1,1,0,0,0-1.09,0A17.1,17.1,0,0,1,20,15.54a16.25,16.25,0,0,1-5.07,1h-.58a1.12,1.12,0,0,0-.72.25l6.39.41a4.23,4.23,0,0,1,4,4.22V39.18A8.57,8.57,0,0,0,28.29,38l2.15-1.24a8.86,8.86,0,0,0,4.43-7.67V17.59A1.11,1.11,0,0,0,33.7,16.49Z"/><path class="cls-11" d="M33.4,16.48a16,16,0,0,1-5.33-.94,17.1,17.1,0,0,1-3.48-1.67A1.1,1.1,0,0,0,24,13.7h0V26.44h9.4Z"/><path class="cls-12" d="M34.8,15.46h-.51a17.8,17.8,0,0,1-5.8-1.05,18.87,18.87,0,0,1-3.84-1.84,1.21,1.21,0,0,0-1.3,0,18.87,18.87,0,0,1-3.84,1.84,17.8,17.8,0,0,1-5.8,1.05h-.45A1.23,1.23,0,0,0,12,16.67V29.4a9.78,9.78,0,0,0,4.89,8.47l2.37,1.37a9.46,9.46,0,0,0,9.46,0l2.37-1.37A9.78,9.78,0,0,0,36,29.4V16.67A1.22,1.22,0,0,0,34.8,15.46ZM32,29.4a5.77,5.77,0,0,1-2.88,5l-2.37,1.37a5.45,5.45,0,0,1-5.45,0L18.9,34.39a5.77,5.77,0,0,1-2.88-5V20.64a1.52,1.52,0,0,1,1.25-1.5,23.52,23.52,0,0,0,3.57-.95,23.77,23.77,0,0,0,2.56-1.06,1.38,1.38,0,0,1,1.22,0,23.77,23.77,0,0,0,2.56,1.06,23.52,23.52,0,0,0,3.57.95A1.52,1.52,0,0,1,32,20.64Z"/></svg>